<?xml version="1.0" encoding="UTF-8"?>
<svg id="For_Sheets" xmlns="http://www.w3.org/2000/svg" version="1.1" viewBox="0 0 2942.9 2942.9">
  <!-- Generator: Adobe Illustrator 29.1.0, SVG Export Plug-In . SVG Version: 2.1.0 Build 142)  -->
  <defs>
    <style>
      .st0 {
        fill: #231f20;
      }

      .st1 {
        fill: #ffd046;
      }
    </style>
  </defs>
  <g>
    <path class="st1" d="M1471.4,2943c-36.1,0-70-14.1-95.5-39.6L39.5,1567C13.9,1541.5-.1,1507.5-.1,1471.4s14.1-70,39.6-95.5L1375.9,39.5C1401.4,13.9,1435.3-.1,1471.4-.1s70,14.1,95.5,39.6l1336.4,1336.4c52.7,52.7,52.7,138.4,0,191.1l-1336.4,1336.4c-25.5,25.5-59.5,39.6-95.5,39.6Z"/>
    <path class="st0" d="M1471.4,0c34.5,0,69.1,13.2,95.5,39.5l1336.4,1336.4c52.7,52.7,52.7,138.2,0,190.9l-1336.4,1336.4c-26.4,26.4-60.9,39.5-95.5,39.5s-69.1-13.2-95.5-39.5L39.5,1566.9c-52.7-52.7-52.7-138.2,0-190.9L1376,39.5C1402.3,13.2,1436.9,0,1471.4,0M1471.4-.3c-36.1,0-70.1,14.1-95.6,39.6L39.4,1375.8c-25.5,25.5-39.6,59.5-39.6,95.6s14.1,70.1,39.6,95.6l1336.4,1336.4c25.5,25.5,59.5,39.6,95.6,39.6s70.1-14.1,95.6-39.6l1336.4-1336.4c25.5-25.5,39.6-59.5,39.6-95.6,0-36.1-14.1-70.1-39.6-95.6L1567.1,39.4c-25.5-25.5-59.5-39.6-95.6-39.6h0Z"/>
  </g>
  <path class="st0" d="M1541.4,2877.9c-38.6,38.6-101.4,38.6-140,0L65,1541.4c-38.6-38.6-38.6-101.4,0-140L1401.4,65c38.6-38.6,101.4-38.6,140,0l1336.4,1336.4c38.6,38.6,38.6,101.4,0,140l-1336.4,1336.4Z"/>
  <path class="st1" d="M1503.3,2839.7c-17.5,17.5-46.1,17.5-63.6,0L103.2,1503.3c-17.5-17.5-17.5-46.1,0-63.6L1439.6,103.2c17.5-17.5,46.1-17.5,63.6,0l1336.4,1336.4c17.5,17.5,17.5,46.1,0,63.6l-1336.4,1336.4Z"/>
  <g id="LINE">
    <line class="st0" x1="1531.4" y1="1921.4" x2="1636.4" y2="1921.4"/>
  </g>
  <g>
    <g id="LINE1" data-name="LINE">
      <rect class="st0" x="1531.4" y="2011.4" width="105" height="180"/>
    </g>
    <g id="LINE2" data-name="LINE">
      <rect class="st0" x="1531.4" y="1741.4" width="105" height="180"/>
    </g>
    <g id="LINE3" data-name="LINE">
      <rect class="st0" x="1531.4" y="1471.4" width="105" height="180"/>
    </g>
  </g>
  <g id="LINE4" data-name="LINE">
    <rect x="933.8" y="751.4" width="240" height="1440"/>
  </g>
  <g id="LINE5" data-name="LINE">
    <polygon class="st0" points="2011.4 2191.4 2011.4 1372.1 1771.8 1132.1 1771.8 751.4 1531.8 751.4 1531.8 1231.4 1771.4 1471.4 1771.4 2191.4 2011.4 2191.4"/>
    <polygon points="2011.4 2191.4 2011.4 1372.1 1771.8 1132.1 1771.8 751.4 1531.8 751.4 1531.8 1231.4 1771.4 1471.4 1771.4 2191.4 2011.4 2191.4"/>
  </g>
</svg>